<?xml version="1.0" standalone="no"?>
<!DOCTYPE svg PUBLIC "-//W3C//DTD SVG 20010904//EN"
 "http://www.w3.org/TR/2001/REC-SVG-20010904/DTD/svg10.dtd">
<svg version="1.0" xmlns="http://www.w3.org/2000/svg"
 width="100.000000pt" height="100.000000pt" viewBox="0 0 100.000000 100.000000"
 preserveAspectRatio="xMidYMid meet">
<metadata>
Created by potrace 1.11, written by Peter Selinger 2001-2013
</metadata>
<g transform="translate(0.000000,100.000000) scale(0.100000,-0.100000)"
fill="#000000" stroke="none">
<path d="M187 678 c1 -156 2 -300 2 -320 l1 -38 65 0 65 0 0 130 0 130 124 0
124 0 3 28 c2 15 3 39 1 53 l-3 27 -97 0 c-53 0 -109 1 -124 1 l-28 1 0 80 0
79 143 3 142 3 0 50 0 50 -210 3 -210 2 2 -282z"/>
<path d="M720 608 l0 -117 -41 23 c-30 17 -52 22 -86 19 -54 -4 -79 -16 -115
-56 -80 -88 -75 -301 9 -389 50 -52 139 -63 197 -23 44 30 46 30 46 5 0 -18 7
-20 59 -20 l59 0 -2 337 -1 337 -62 1 -63 1 0 -118z m-20 -200 c17 -19 20 -35
20 -123 0 -115 -10 -135 -72 -140 -67 -6 -101 41 -99 141 1 104 27 144 91 144
27 0 45 -7 60 -22z"/>
</g>
</svg>
