<svg version="1.0" xmlns="http://www.w3.org/2000/svg" width="133.333" height="133.333" viewBox="0 0 100 100"><path d="M18.7 32.2c.1 15.6.2 30 .2 32L19 68h13V42h24.8l.3-2.8c.2-1.5.3-3.9.1-5.3l-.3-2.7h-9.7c-5.3 0-10.9-.1-12.4-.1L32 31V15.1l14.3-.3 14.2-.3v-10l-21-.3-21-.2.2 28.2zm53.3 7v11.7l-4.1-2.3c-3-1.7-5.2-2.2-8.6-1.9-5.4.4-7.9 1.6-11.5 5.6-8 8.8-7.5 30.1.9 38.9 5 5.2 13.9 6.3 19.7 2.3 4.4-3 4.6-3 4.6-.5 0 1.8.7 2 5.9 2h5.9l-.2-33.7-.1-33.7-6.2-.1-6.3-.1v11.8zm-2 20c1.7 1.9 2 3.5 2 12.3 0 11.5-1 13.5-7.2 14-6.7.6-10.1-4.1-9.9-14.1C55 61 57.6 57 64 57c2.7 0 4.5.7 6 2.2z"/></svg>